<?xml version="1.0" encoding="UTF-8" standalone="no"?><svg xmlns="http://www.w3.org/2000/svg" xmlns:xlink="http://www.w3.org/1999/xlink" contentStyleType="text/css" height="201px" preserveAspectRatio="none" style="width:170px;height:201px;background:#FFFFFF;" version="1.1" viewBox="0 0 170 201" width="170px" zoomAndPan="magnify"><defs/><g><!--MD5=[9a2897d96cfcc917fe91044b2ccff0ad]
class Employe--><g id="elem_Employe"><rect codeLine="4" fill="#F1F1F1" height="180.875" id="Employe" rx="2.5" ry="2.5" style="stroke:#181818;stroke-width:0.5;" width="149" x="7" y="7"/><ellipse cx="50.35" cy="23" fill="#ADD1B2" rx="11" ry="11" style="stroke:#181818;stroke-width:1.0;"/><path d="M53.1156,18.875 Q53.2719,18.6563 53.4594,18.5469 Q53.6469,18.4375 53.8656,18.4375 Q54.2406,18.4375 54.475,18.7031 Q54.7094,18.9531 54.7094,19.5625 L54.7094,21.0156 Q54.7094,21.625 54.475,21.8906 Q54.2406,22.1563 53.8656,22.1563 Q53.5219,22.1563 53.3188,21.9531 Q53.1156,21.7656 53.0063,21.25 Q52.9594,20.8906 52.7719,20.7031 Q52.4438,20.3281 51.8344,20.1094 Q51.225,19.8906 50.6,19.8906 Q49.8344,19.8906 49.1938,20.2188 Q48.5688,20.5469 48.0688,21.2969 Q47.5844,22.0469 47.5844,23.0781 L47.5844,24.1719 Q47.5844,25.4063 48.475,26.2344 Q49.3656,27.0469 50.9594,27.0469 Q51.8969,27.0469 52.5531,26.7969 Q52.9438,26.6406 53.3656,26.2031 Q53.6313,25.9375 53.7719,25.8594 Q53.9281,25.7813 54.1313,25.7813 Q54.4594,25.7813 54.7094,26.0469 Q54.975,26.2969 54.975,26.6406 Q54.975,26.9844 54.6313,27.3906 Q54.1313,27.9688 53.3344,28.2969 Q52.2563,28.75 50.9594,28.75 Q49.4438,28.75 48.2406,28.125 Q47.2563,27.625 46.5688,26.5625 Q45.8813,25.4844 45.8813,24.2031 L45.8813,23.0469 Q45.8813,21.7188 46.4906,20.5781 Q47.1156,19.4219 48.2094,18.8125 Q49.3031,18.1875 50.5375,18.1875 Q51.2719,18.1875 51.9125,18.3594 Q52.5688,18.5156 53.1156,18.875 Z " fill="#000000"/><text fill="#000000" font-family="sans-serif" font-size="14" lengthAdjust="spacing" textLength="54" x="70.65" y="28.7285">Employe</text><line style="stroke:#181818;stroke-width:0.5;" x1="8" x2="155" y1="39" y2="39"/><path d="M20.4167,47.776 C18.8067,47.776 17.5,49.0827 17.5,50.6927 C17.5,50.8794 17.5,51.066 17.535,51.241 L14,54.776 L14,57.1094 L17.5,57.1094 L17.5,54.776 L19.8333,54.776 L19.8333,53.6094 L19.8683,53.5744 C20.0433,53.6094 20.23,53.6094 20.4167,53.6094 C22.0267,53.6094 23.3333,52.3027 23.3333,50.6927 C23.3333,49.0827 22.0267,47.776 20.4167,47.776 M21,48.9427 C21.6417,48.9427 22.1667,49.4677 22.1667,50.1094 C22.1667,50.751 21.6417,51.276 21,51.276 C20.3583,51.276 19.8333,50.751 19.8333,50.1094 C19.8333,49.4677 20.3583,48.9427 21,48.9427 " fill="#000000" style="stroke:;stroke-width:0.0;stroke-dasharray:;"/><text fill="#000000" font-family="sans-serif" font-size="14" lengthAdjust="spacing" textLength="19" x="28.3333" y="57.5332">id :</text><text fill="#428ECD" font-family="sans-serif" font-size="14" lengthAdjust="spacing" textLength="57" x="51.3333" y="57.5332">NUMBER</text><text fill="#000000" font-family="sans-serif" font-size="14" lengthAdjust="spacing" textLength="35" x="13" y="75.1426">nom :</text><text fill="#428ECD" font-family="sans-serif" font-size="14" lengthAdjust="spacing" textLength="66" x="52" y="75.1426">VARCHAR</text><text fill="#000000" font-family="sans-serif" font-size="14" lengthAdjust="spacing" textLength="56" x="13" y="92.752">prenom :</text><text fill="#428ECD" font-family="sans-serif" font-size="14" lengthAdjust="spacing" textLength="66" x="73" y="92.752">VARCHAR</text><text fill="#000000" font-family="sans-serif" font-size="14" lengthAdjust="spacing" textLength="58" x="13" y="110.3613">fonction :</text><text fill="#428ECD" font-family="sans-serif" font-size="14" lengthAdjust="spacing" textLength="66" x="75" y="110.3613">VARCHAR</text><text fill="#000000" font-family="sans-serif" font-size="14" lengthAdjust="spacing" textLength="45" x="13" y="127.9707">grade :</text><text fill="#428ECD" font-family="sans-serif" font-size="14" lengthAdjust="spacing" textLength="66" x="62" y="127.9707">VARCHAR</text><text fill="#000000" font-family="sans-serif" font-size="14" lengthAdjust="spacing" textLength="67" x="13" y="145.5801">specialite :</text><text fill="#428ECD" font-family="sans-serif" font-size="14" lengthAdjust="spacing" textLength="66" x="84" y="145.5801">VARCHAR</text><text fill="#000000" font-family="sans-serif" font-size="14" lengthAdjust="spacing" textLength="50" x="13" y="163.1895">niveau :</text><text fill="#428ECD" font-family="sans-serif" font-size="14" lengthAdjust="spacing" textLength="66" x="67" y="163.1895">VARCHAR</text><text fill="#000000" font-family="sans-serif" font-size="14" lengthAdjust="spacing" textLength="44" x="13" y="180.7988">typeE :</text><text fill="#428ECD" font-family="sans-serif" font-size="14" lengthAdjust="spacing" textLength="66" x="61" y="180.7988">VARCHAR</text></g><!--MD5=[6ba9757b2d2c82c2701ea2ebb2048f1c]
@startuml

!includeurl https://raw.githubusercontent.com/manuvai/plantuml-utils/master/class_diagram_utils.puml

class Employe {
    <&key> member("NUMBER", id)
    member("VARCHAR", nom)
    member("VARCHAR", prenom)
    member("VARCHAR", fonction)
    member("VARCHAR", grade)
    member("VARCHAR", specialite)
    member("VARCHAR", niveau)
    member("VARCHAR", typeE)
}

@enduml

@startuml


hide empty members
hide empty methods





















class Employe {
    <&key> id : <color:#428ecd>NUMBER</color>
    nom : <color:#428ecd>VARCHAR</color>
    prenom : <color:#428ecd>VARCHAR</color>
    fonction : <color:#428ecd>VARCHAR</color>
    grade : <color:#428ecd>VARCHAR</color>
    specialite : <color:#428ecd>VARCHAR</color>
    niveau : <color:#428ecd>VARCHAR</color>
    typeE : <color:#428ecd>VARCHAR</color>
}

@enduml

PlantUML version 1.2022.7(Mon Aug 22 19:01:30 CEST 2022)
(GPL source distribution)
Java Runtime: Java(TM) SE Runtime Environment
JVM: Java HotSpot(TM) 64-Bit Server VM
Default Encoding: UTF-8
Language: fr
Country: FR
--></g></svg>