<?xml version="1.0" encoding="UTF-8" standalone="no"?><svg xmlns="http://www.w3.org/2000/svg" xmlns:xlink="http://www.w3.org/1999/xlink" contentStyleType="text/css" height="242px" preserveAspectRatio="none" style="width:308px;height:242px;background:#FFFFFF;" version="1.1" viewBox="0 0 308 242" width="308px" zoomAndPan="magnify"><defs/><g><!--MD5=[9a2897d96cfcc917fe91044b2ccff0ad]
class Employe--><g id="elem_Employe"><rect codeLine="4" fill="#F1F1F1" height="92.8281" id="Employe" rx="2.5" ry="2.5" style="stroke:#181818;stroke-width:0.5;" width="123" x="90" y="7"/><ellipse cx="121.65" cy="23" fill="#ADD1B2" rx="11" ry="11" style="stroke:#181818;stroke-width:1.0;"/><path d="M124.4156,18.875 Q124.5719,18.6563 124.7594,18.5469 Q124.9469,18.4375 125.1656,18.4375 Q125.5406,18.4375 125.775,18.7031 Q126.0094,18.9531 126.0094,19.5625 L126.0094,21.0156 Q126.0094,21.625 125.775,21.8906 Q125.5406,22.1563 125.1656,22.1563 Q124.8219,22.1563 124.6188,21.9531 Q124.4156,21.7656 124.3063,21.25 Q124.2594,20.8906 124.0719,20.7031 Q123.7438,20.3281 123.1344,20.1094 Q122.525,19.8906 121.9,19.8906 Q121.1344,19.8906 120.4938,20.2188 Q119.8688,20.5469 119.3688,21.2969 Q118.8844,22.0469 118.8844,23.0781 L118.8844,24.1719 Q118.8844,25.4063 119.775,26.2344 Q120.6656,27.0469 122.2594,27.0469 Q123.1969,27.0469 123.8531,26.7969 Q124.2438,26.6406 124.6656,26.2031 Q124.9313,25.9375 125.0719,25.8594 Q125.2281,25.7813 125.4313,25.7813 Q125.7594,25.7813 126.0094,26.0469 Q126.275,26.2969 126.275,26.6406 Q126.275,26.9844 125.9313,27.3906 Q125.4313,27.9688 124.6344,28.2969 Q123.5563,28.75 122.2594,28.75 Q120.7438,28.75 119.5406,28.125 Q118.5563,27.625 117.8688,26.5625 Q117.1813,25.4844 117.1813,24.2031 L117.1813,23.0469 Q117.1813,21.7188 117.7906,20.5781 Q118.4156,19.4219 119.5094,18.8125 Q120.6031,18.1875 121.8375,18.1875 Q122.5719,18.1875 123.2125,18.3594 Q123.8688,18.5156 124.4156,18.875 Z " fill="#000000"/><text fill="#000000" font-family="sans-serif" font-size="14" lengthAdjust="spacing" textLength="54" x="139.35" y="28.7285">Employe</text><line style="stroke:#181818;stroke-width:0.5;" x1="91" x2="212" y1="39" y2="39"/><polygon fill="none" points="101,48.3047,105,52.3047,101,56.3047,97,52.3047" style="stroke:#B38D22;stroke-width:1.0;"/><text fill="#000000" font-family="sans-serif" font-size="14" lengthAdjust="spacing" textLength="19" x="110" y="57.5332">id :</text><text fill="#D2453F" font-family="sans-serif" font-size="14" lengthAdjust="spacing" textLength="15" x="133" y="57.5332">int</text><polygon fill="none" points="101,65.9141,105,69.9141,101,73.9141,97,69.9141" style="stroke:#B38D22;stroke-width:1.0;"/><text fill="#000000" font-family="sans-serif" font-size="14" lengthAdjust="spacing" textLength="35" x="110" y="75.1426">nom :</text><text fill="#428ECD" font-family="sans-serif" font-size="14" lengthAdjust="spacing" textLength="37" x="149" y="75.1426">String</text><polygon fill="none" points="101,83.5234,105,87.5234,101,91.5234,97,87.5234" style="stroke:#B38D22;stroke-width:1.0;"/><text fill="#000000" font-family="sans-serif" font-size="14" lengthAdjust="spacing" textLength="56" x="110" y="92.752">prenom :</text><text fill="#428ECD" font-family="sans-serif" font-size="14" lengthAdjust="spacing" textLength="37" x="170" y="92.752">String</text></g><!--MD5=[5db8ee3e6164378747145a27d840b7bc]
class Administratif--><g id="elem_Administratif"><rect codeLine="10" fill="#F1F1F1" height="75.2188" id="Administratif" rx="2.5" ry="2.5" style="stroke:#181818;stroke-width:0.5;" width="125" x="7" y="160"/><ellipse cx="29.2" cy="176" fill="#ADD1B2" rx="11" ry="11" style="stroke:#181818;stroke-width:1.0;"/><path d="M31.9656,171.875 Q32.1219,171.6563 32.3094,171.5469 Q32.4969,171.4375 32.7156,171.4375 Q33.0906,171.4375 33.325,171.7031 Q33.5594,171.9531 33.5594,172.5625 L33.5594,174.0156 Q33.5594,174.625 33.325,174.8906 Q33.0906,175.1563 32.7156,175.1563 Q32.3719,175.1563 32.1688,174.9531 Q31.9656,174.7656 31.8563,174.25 Q31.8094,173.8906 31.6219,173.7031 Q31.2938,173.3281 30.6844,173.1094 Q30.075,172.8906 29.45,172.8906 Q28.6844,172.8906 28.0438,173.2188 Q27.4188,173.5469 26.9188,174.2969 Q26.4344,175.0469 26.4344,176.0781 L26.4344,177.1719 Q26.4344,178.4063 27.325,179.2344 Q28.2156,180.0469 29.8094,180.0469 Q30.7469,180.0469 31.4031,179.7969 Q31.7938,179.6406 32.2156,179.2031 Q32.4813,178.9375 32.6219,178.8594 Q32.7781,178.7813 32.9813,178.7813 Q33.3094,178.7813 33.5594,179.0469 Q33.825,179.2969 33.825,179.6406 Q33.825,179.9844 33.4813,180.3906 Q32.9813,180.9688 32.1844,181.2969 Q31.1063,181.75 29.8094,181.75 Q28.2938,181.75 27.0906,181.125 Q26.1063,180.625 25.4188,179.5625 Q24.7313,178.4844 24.7313,177.2031 L24.7313,176.0469 Q24.7313,174.7188 25.3406,173.5781 Q25.9656,172.4219 27.0594,171.8125 Q28.1531,171.1875 29.3875,171.1875 Q30.1219,171.1875 30.7625,171.3594 Q31.4188,171.5156 31.9656,171.875 Z " fill="#000000"/><text fill="#000000" font-family="sans-serif" font-size="14" lengthAdjust="spacing" textLength="77" x="44.8" y="181.7285">Administratif</text><line style="stroke:#181818;stroke-width:0.5;" x1="8" x2="131" y1="192" y2="192"/><rect fill="none" height="6" style="stroke:#C82930;stroke-width:1.0;" width="6" x="15" y="203.3047"/><text fill="#000000" font-family="sans-serif" font-size="14" lengthAdjust="spacing" textLength="58" x="27" y="210.5332">fonction :</text><text fill="#428ECD" font-family="sans-serif" font-size="14" lengthAdjust="spacing" textLength="37" x="89" y="210.5332">String</text><rect fill="none" height="6" style="stroke:#C82930;stroke-width:1.0;" width="6" x="15" y="220.9141"/><text fill="#000000" font-family="sans-serif" font-size="14" lengthAdjust="spacing" textLength="45" x="27" y="228.1426">grade :</text><text fill="#428ECD" font-family="sans-serif" font-size="14" lengthAdjust="spacing" textLength="37" x="76" y="228.1426">String</text></g><!--MD5=[81dd45cb22faf3f83a9011ea64d65b66]
class Technicien--><g id="elem_Technicien"><rect codeLine="15" fill="#F1F1F1" height="75.2188" id="Technicien" rx="2.5" ry="2.5" style="stroke:#181818;stroke-width:0.5;" width="134" x="167.5" y="160"/><ellipse cx="197.35" cy="176" fill="#ADD1B2" rx="11" ry="11" style="stroke:#181818;stroke-width:1.0;"/><path d="M200.1156,171.875 Q200.2719,171.6563 200.4594,171.5469 Q200.6469,171.4375 200.8656,171.4375 Q201.2406,171.4375 201.475,171.7031 Q201.7094,171.9531 201.7094,172.5625 L201.7094,174.0156 Q201.7094,174.625 201.475,174.8906 Q201.2406,175.1563 200.8656,175.1563 Q200.5219,175.1563 200.3188,174.9531 Q200.1156,174.7656 200.0063,174.25 Q199.9594,173.8906 199.7719,173.7031 Q199.4438,173.3281 198.8344,173.1094 Q198.225,172.8906 197.6,172.8906 Q196.8344,172.8906 196.1938,173.2188 Q195.5688,173.5469 195.0688,174.2969 Q194.5844,175.0469 194.5844,176.0781 L194.5844,177.1719 Q194.5844,178.4063 195.475,179.2344 Q196.3656,180.0469 197.9594,180.0469 Q198.8969,180.0469 199.5531,179.7969 Q199.9438,179.6406 200.3656,179.2031 Q200.6313,178.9375 200.7719,178.8594 Q200.9281,178.7813 201.1313,178.7813 Q201.4594,178.7813 201.7094,179.0469 Q201.975,179.2969 201.975,179.6406 Q201.975,179.9844 201.6313,180.3906 Q201.1313,180.9688 200.3344,181.2969 Q199.2563,181.75 197.9594,181.75 Q196.4438,181.75 195.2406,181.125 Q194.2563,180.625 193.5688,179.5625 Q192.8813,178.4844 192.8813,177.2031 L192.8813,176.0469 Q192.8813,174.7188 193.4906,173.5781 Q194.1156,172.4219 195.2094,171.8125 Q196.3031,171.1875 197.5375,171.1875 Q198.2719,171.1875 198.9125,171.3594 Q199.5688,171.5156 200.1156,171.875 Z " fill="#000000"/><text fill="#000000" font-family="sans-serif" font-size="14" lengthAdjust="spacing" textLength="69" x="214.65" y="181.7285">Technicien</text><line style="stroke:#181818;stroke-width:0.5;" x1="168.5" x2="300.5" y1="192" y2="192"/><rect fill="none" height="6" style="stroke:#C82930;stroke-width:1.0;" width="6" x="175.5" y="203.3047"/><text fill="#000000" font-family="sans-serif" font-size="14" lengthAdjust="spacing" textLength="67" x="187.5" y="210.5332">specialite :</text><text fill="#428ECD" font-family="sans-serif" font-size="14" lengthAdjust="spacing" textLength="37" x="258.5" y="210.5332">String</text><rect fill="none" height="6" style="stroke:#C82930;stroke-width:1.0;" width="6" x="175.5" y="220.9141"/><text fill="#000000" font-family="sans-serif" font-size="14" lengthAdjust="spacing" textLength="50" x="187.5" y="228.1426">niveau :</text><text fill="#428ECD" font-family="sans-serif" font-size="14" lengthAdjust="spacing" textLength="37" x="241.5" y="228.1426">String</text></g><!--MD5=[f1c477354850350ad8cee865b5813b9a]
reverse link Employe to Administratif--><g id="link_Employe_Administratif"><path d="M114.84,117.98 C106.56,132.32 98.04,147.07 90.66,159.87 " fill="none" id="Employe-backto-Administratif" style="stroke:#181818;stroke-width:1.0;"/><polygon fill="none" points="109.04,114.03,125.1,100.21,121.16,121.03,109.04,114.03" style="stroke:#181818;stroke-width:1.0;"/></g><!--MD5=[8a73750c27ca474424060cf400d512c5]
reverse link Employe to Technicien--><g id="link_Employe_Technicien"><path d="M188.32,117.5 C196.79,131.99 205.53,146.93 213.09,159.87 " fill="none" id="Employe-backto-Technicien" style="stroke:#181818;stroke-width:1.0;"/><polygon fill="none" points="182.27,121.01,178.22,100.21,194.35,113.95,182.27,121.01" style="stroke:#181818;stroke-width:1.0;"/></g><!--MD5=[2782758026c267c848f4448f6e021137]
@startuml

!includeurl https://raw.githubusercontent.com/manuvai/plantuml-utils/master/class_diagram_utils.puml

class Employe {
    #int(id)
    #string(nom)
    #string(prenom)
}

class Administratif extends Employe {
    -string(fonction)
    -string(grade)
}

class Technicien extends Employe {
    -string(specialite)
    -string(niveau)
}

@enduml

@startuml


hide empty members
hide empty methods





















class Employe {
    #id : <color:#d2453f>int</color>
    #nom : <color:#428ecd>String</color>
    #prenom : <color:#428ecd>String</color>
}

class Administratif extends Employe {
    -fonction : <color:#428ecd>String</color>
    -grade : <color:#428ecd>String</color>
}

class Technicien extends Employe {
    -specialite : <color:#428ecd>String</color>
    -niveau : <color:#428ecd>String</color>
}

@enduml

PlantUML version 1.2022.7(Mon Aug 22 19:01:30 CEST 2022)
(GPL source distribution)
Java Runtime: Java(TM) SE Runtime Environment
JVM: Java HotSpot(TM) 64-Bit Server VM
Default Encoding: UTF-8
Language: fr
Country: FR
--></g></svg>